<svg xmlns="http://www.w3.org/2000/svg" x="0px" y="0px"
	 viewBox="0 0 124 41" >
<style type="text/css">
	.flame{fill:url(#flameGradient);}
</style>
<g>
	<g>
		<path d="M11.7,10.6l1.8,0.4c-0.4,1.5-1,2.6-2,3.3s-2.2,1.2-3.6,1.2c-1.5,0-2.6-0.3-3.5-0.9s-1.6-1.4-2.1-2.6
			C1.9,11,1.6,9.8,1.6,8.5c0-1.4,0.3-2.6,0.8-3.7C3,3.8,3.7,3,4.7,2.4S6.8,1.6,8,1.6c1.3,0,2.5,0.3,3.4,1c0.9,0.7,1.6,1.6,1.9,2.9
			l-1.8,0.4c-0.3-1-0.8-1.7-1.4-2.1C9.6,3.4,8.8,3.1,7.9,3.1c-1,0-1.9,0.2-2.6,0.7S4.2,5,3.9,5.9C3.6,6.7,3.5,7.6,3.5,8.5
			c0,1.1,0.2,2.1,0.5,3s0.9,1.5,1.6,1.9C6.2,13.8,7,14,7.8,14c1,0,1.8-0.3,2.5-0.9S11.5,11.7,11.7,10.6z"/>
		<path d="M21.9,14.1c-0.6,0.5-1.2,0.9-1.8,1.1c-0.6,0.2-1.2,0.3-1.8,0.3c-1.1,0-1.9-0.3-2.5-0.8s-0.9-1.2-0.9-2
			c0-0.5,0.1-0.9,0.3-1.3c0.2-0.4,0.5-0.7,0.9-0.9c0.4-0.2,0.7-0.4,1.2-0.5c0.3-0.1,0.8-0.2,1.5-0.2c1.3-0.2,2.3-0.3,2.9-0.6
			c0-0.2,0-0.4,0-0.4c0-0.7-0.2-1.1-0.5-1.4c-0.4-0.4-1-0.6-1.9-0.6c-0.8,0-1.4,0.1-1.7,0.4c-0.4,0.3-0.6,0.8-0.8,1.4l-1.6-0.2
			c0.1-0.7,0.4-1.2,0.7-1.7c0.3-0.4,0.8-0.8,1.5-1s1.4-0.3,2.2-0.3c0.8,0,1.5,0.1,2,0.3c0.5,0.2,0.9,0.4,1.1,0.7
			C23,6.7,23.2,7,23.3,7.5c0.1,0.3,0.1,0.8,0.1,1.5v2.2c0,1.5,0,2.5,0.1,2.9c0.1,0.4,0.2,0.8,0.4,1.2h-1.7
			C22,15,21.9,14.6,21.9,14.1z M21.7,10.4c-0.6,0.2-1.5,0.5-2.7,0.6c-0.7,0.1-1.2,0.2-1.4,0.3c-0.3,0.1-0.5,0.3-0.7,0.5
			c-0.2,0.2-0.2,0.5-0.2,0.8c0,0.4,0.2,0.8,0.5,1.1c0.3,0.3,0.8,0.4,1.5,0.4c0.6,0,1.2-0.1,1.7-0.4c0.5-0.3,0.9-0.7,1.1-1.1
			c0.2-0.4,0.3-0.9,0.3-1.7V10.4z"/>
		<path d="M25.9,15.3V5.6h1.5v1.4c0.3-0.5,0.7-0.9,1.2-1.2c0.5-0.3,1.1-0.4,1.7-0.4c0.7,0,1.3,0.1,1.8,0.4s0.8,0.7,1,1.3
			c0.8-1.1,1.8-1.7,3-1.7c1,0,1.7,0.3,2.2,0.8c0.5,0.5,0.8,1.4,0.8,2.5v6.7h-1.6V9.2c0-0.7-0.1-1.1-0.2-1.4C37.2,7.4,37,7.2,36.8,7
			c-0.3-0.2-0.6-0.3-1-0.3c-0.7,0-1.3,0.2-1.7,0.7c-0.5,0.5-0.7,1.2-0.7,2.2v5.7h-1.7V9c0-0.7-0.1-1.3-0.4-1.7S30.6,6.8,30,6.8
			c-0.5,0-0.9,0.1-1.3,0.4c-0.4,0.2-0.7,0.6-0.9,1.1c-0.2,0.5-0.3,1.2-0.3,2v5.1H25.9z"/>
		<path d="M41.6,19V5.6h1.5v1.3c0.4-0.5,0.8-0.9,1.2-1.1c0.4-0.2,1-0.4,1.6-0.4c0.8,0,1.6,0.2,2.2,0.6c0.6,0.4,1.1,1,1.4,1.8
			c0.3,0.8,0.5,1.6,0.5,2.6c0,1-0.2,1.9-0.5,2.7c-0.4,0.8-0.9,1.4-1.6,1.8s-1.4,0.6-2.2,0.6c-0.6,0-1-0.1-1.5-0.3
			c-0.4-0.2-0.8-0.5-1.1-0.9V19H41.6z M43.1,10.5c0,1.3,0.3,2.2,0.8,2.8c0.5,0.6,1.1,0.9,1.8,0.9c0.7,0,1.4-0.3,1.9-0.9
			c0.5-0.6,0.8-1.6,0.8-2.9c0-1.2-0.3-2.2-0.8-2.8c-0.5-0.6-1.1-0.9-1.8-0.9c-0.7,0-1.3,0.3-1.9,1S43.1,9.2,43.1,10.5z"/>
		<path d="M58.4,14.1c-0.6,0.5-1.2,0.9-1.8,1.1c-0.6,0.2-1.2,0.3-1.8,0.3c-1.1,0-1.9-0.3-2.5-0.8s-0.9-1.2-0.9-2
			c0-0.5,0.1-0.9,0.3-1.3c0.2-0.4,0.5-0.7,0.9-0.9c0.4-0.2,0.7-0.4,1.2-0.5c0.3-0.1,0.8-0.2,1.5-0.2c1.3-0.2,2.3-0.3,2.9-0.6
			c0-0.2,0-0.4,0-0.4c0-0.7-0.2-1.1-0.5-1.4c-0.4-0.4-1-0.6-1.9-0.6c-0.8,0-1.4,0.1-1.7,0.4c-0.4,0.3-0.6,0.8-0.8,1.4l-1.6-0.2
			c0.1-0.7,0.4-1.2,0.7-1.7c0.3-0.4,0.8-0.8,1.5-1s1.4-0.3,2.2-0.3c0.8,0,1.5,0.1,2,0.3c0.5,0.2,0.9,0.4,1.1,0.7
			c0.2,0.3,0.4,0.7,0.5,1.1C59.9,7.8,60,8.3,60,9v2.2c0,1.5,0,2.5,0.1,2.9c0.1,0.4,0.2,0.8,0.4,1.2h-1.7
			C58.6,15,58.5,14.6,58.4,14.1z M58.3,10.4c-0.6,0.2-1.5,0.5-2.7,0.6c-0.7,0.1-1.2,0.2-1.4,0.3c-0.3,0.1-0.5,0.3-0.7,0.5
			c-0.2,0.2-0.2,0.5-0.2,0.8c0,0.4,0.2,0.8,0.5,1.1c0.3,0.3,0.8,0.4,1.5,0.4c0.6,0,1.2-0.1,1.7-0.4c0.5-0.3,0.9-0.7,1.1-1.1
			c0.2-0.4,0.3-0.9,0.3-1.7V10.4z"/>
		<path d="M62.5,3.7V1.8h1.7v1.9H62.5z M62.5,15.3V5.6h1.7v9.7H62.5z"/>
		<path d="M66.4,16.1l1.6,0.2c0.1,0.5,0.3,0.9,0.6,1.1c0.4,0.3,1,0.5,1.7,0.5c0.8,0,1.4-0.2,1.8-0.5c0.4-0.3,0.7-0.7,0.8-1.3
			c0.1-0.3,0.1-1,0.1-2.1c-0.7,0.9-1.6,1.3-2.7,1.3c-1.3,0-2.4-0.5-3.1-1.5s-1.1-2.1-1.1-3.5c0-0.9,0.2-1.8,0.5-2.6S67.4,6.4,68,6
			c0.6-0.4,1.4-0.6,2.3-0.6c1.2,0,2.1,0.5,2.8,1.4V5.6h1.5V14c0,1.5-0.2,2.6-0.5,3.2s-0.8,1.1-1.5,1.5c-0.7,0.4-1.5,0.6-2.5,0.6
			c-1.2,0-2.1-0.3-2.8-0.8C66.7,17.9,66.4,17.2,66.4,16.1z M67.8,10.3c0,1.3,0.3,2.2,0.8,2.8s1.1,0.9,1.9,0.9c0.8,0,1.4-0.3,1.9-0.9
			c0.5-0.6,0.8-1.5,0.8-2.7c0-1.2-0.3-2.1-0.8-2.7c-0.5-0.6-1.2-0.9-1.9-0.9c-0.7,0-1.4,0.3-1.9,0.9C68,8.2,67.8,9.1,67.8,10.3z"/>
		<path d="M77.1,15.3V5.6h1.5v1.4c0.7-1.1,1.7-1.6,3.1-1.6c0.6,0,1.1,0.1,1.6,0.3c0.5,0.2,0.9,0.5,1.1,0.8c0.2,0.3,0.4,0.8,0.5,1.2
			C85,8,85.1,8.5,85.1,9.3v6h-1.7V9.4c0-0.7-0.1-1.2-0.2-1.5c-0.1-0.3-0.4-0.6-0.7-0.8c-0.3-0.2-0.7-0.3-1.2-0.3
			c-0.7,0-1.3,0.2-1.8,0.7C79,7.9,78.8,8.7,78.8,10v5.3H77.1z"/>
	</g>
	<g>
		<path d="M28.9,31.3l2.6,0.8c-0.4,1.5-1.1,2.6-2,3.3s-2.1,1.1-3.6,1.1c-1.8,0-3.3-0.6-4.4-1.8s-1.7-2.9-1.7-5c0-2.2,0.6-4,1.7-5.2
			c1.2-1.2,2.7-1.9,4.6-1.9c1.6,0,3,0.5,4,1.5c0.6,0.6,1.1,1.4,1.4,2.5l-2.7,0.6c-0.2-0.7-0.5-1.2-1-1.7c-0.5-0.4-1.1-0.6-1.8-0.6
			c-1,0-1.8,0.4-2.4,1.1s-0.9,1.9-0.9,3.5c0,1.7,0.3,2.9,0.9,3.6c0.6,0.7,1.4,1.1,2.4,1.1c0.7,0,1.3-0.2,1.9-0.7
			C28.3,33,28.7,32.2,28.9,31.3z"/>
		<path d="M33.3,31.2c0-0.9,0.2-1.7,0.6-2.5c0.4-0.8,1-1.4,1.8-1.8c0.8-0.4,1.6-0.6,2.6-0.6c1.5,0,2.7,0.5,3.6,1.4s1.4,2.2,1.4,3.6
			c0,1.5-0.5,2.7-1.4,3.7c-1,1-2.1,1.5-3.6,1.5c-0.9,0-1.7-0.2-2.6-0.6c-0.8-0.4-1.4-1-1.8-1.8C33.5,33.3,33.3,32.3,33.3,31.2z
			 M35.9,31.3c0,1,0.2,1.7,0.7,2.2c0.5,0.5,1,0.8,1.7,0.8s1.2-0.3,1.7-0.8c0.5-0.5,0.7-1.3,0.7-2.2c0-1-0.2-1.7-0.7-2.2
			c-0.5-0.5-1-0.8-1.7-0.8s-1.2,0.3-1.7,0.8C36.1,29.6,35.9,30.4,35.9,31.3z"/>
		<path d="M45.1,26.5h2.4v1.3c0.9-1,1.9-1.6,3-1.6c0.6,0,1.2,0.1,1.6,0.4c0.5,0.3,0.8,0.6,1.1,1.2c0.4-0.5,0.9-0.9,1.4-1.2
			c0.5-0.3,1-0.4,1.6-0.4c0.7,0,1.3,0.1,1.8,0.4c0.5,0.3,0.9,0.7,1.1,1.3c0.2,0.4,0.3,1.1,0.3,2v6.2h-2.6v-5.6c0-1-0.1-1.6-0.3-1.9
			c-0.2-0.4-0.6-0.6-1.1-0.6c-0.4,0-0.7,0.1-1,0.3s-0.5,0.5-0.7,1s-0.2,1.1-0.2,2v4.7H51v-5.3c0-0.9,0-1.6-0.1-1.8s-0.2-0.5-0.4-0.6
			c-0.2-0.1-0.5-0.2-0.8-0.2c-0.4,0-0.8,0.1-1.1,0.3c-0.3,0.2-0.5,0.5-0.7,0.9c-0.1,0.4-0.2,1.1-0.2,2v4.7h-2.6V26.5z"/>
		<path d="M62,26.5h2.4v1.4c0.3-0.5,0.7-0.9,1.3-1.2c0.5-0.3,1.1-0.5,1.8-0.5c1.1,0,2.1,0.4,2.9,1.3c0.8,0.9,1.2,2.1,1.2,3.7
			c0,1.6-0.4,2.9-1.2,3.8c-0.8,0.9-1.8,1.4-2.9,1.4c-0.5,0-1-0.1-1.5-0.3c-0.4-0.2-0.9-0.6-1.4-1.1v4.9H62V26.5z M64.5,31.2
			c0,1.1,0.2,1.9,0.7,2.4c0.4,0.5,1,0.8,1.6,0.8c0.6,0,1.1-0.2,1.5-0.7s0.6-1.3,0.6-2.4c0-1-0.2-1.8-0.6-2.3
			c-0.4-0.5-0.9-0.7-1.5-0.7c-0.6,0-1.2,0.2-1.6,0.7S64.5,30.2,64.5,31.2z"/>
		<path d="M75.5,29.4L73.1,29c0.3-0.9,0.7-1.6,1.4-2.1c0.6-0.5,1.6-0.7,2.9-0.7c1.2,0,2,0.1,2.6,0.4c0.6,0.3,1,0.6,1.2,1
			c0.2,0.4,0.3,1.2,0.3,2.3l0,3c0,0.9,0,1.5,0.1,1.9c0.1,0.4,0.2,0.8,0.5,1.3h-2.6c-0.1-0.2-0.1-0.4-0.2-0.8c0-0.2-0.1-0.3-0.1-0.3
			c-0.4,0.4-0.9,0.7-1.4,1c-0.5,0.2-1,0.3-1.6,0.3c-1,0-1.8-0.3-2.4-0.8c-0.6-0.5-0.9-1.2-0.9-2.1c0-0.6,0.1-1,0.4-1.5
			c0.3-0.4,0.6-0.8,1.1-1c0.5-0.2,1.2-0.4,2.1-0.6c1.2-0.2,2-0.4,2.5-0.6v-0.3c0-0.5-0.1-0.8-0.4-1.1c-0.2-0.2-0.7-0.3-1.4-0.3
			c-0.5,0-0.8,0.1-1.1,0.3C75.8,28.7,75.6,29,75.5,29.4z M78.9,31.5c-0.3,0.1-0.9,0.2-1.6,0.4c-0.7,0.2-1.2,0.3-1.4,0.4
			c-0.3,0.2-0.5,0.5-0.5,0.9c0,0.4,0.1,0.7,0.4,0.9c0.3,0.3,0.6,0.4,1,0.4c0.5,0,0.9-0.2,1.3-0.5c0.3-0.2,0.5-0.5,0.6-0.9
			c0.1-0.2,0.1-0.6,0.1-1.3V31.5z"/>
		<path d="M92.9,36.2h-2.6v-5c0-1.1-0.1-1.7-0.2-2s-0.3-0.5-0.5-0.7c-0.2-0.2-0.5-0.3-0.9-0.3c-0.4,0-0.8,0.1-1.2,0.4
			c-0.4,0.2-0.6,0.6-0.7,1c-0.1,0.4-0.2,1.2-0.2,2.2v4.4H84v-9.7h2.4v1.4c0.9-1.1,1.9-1.7,3.2-1.7c0.6,0,1.1,0.1,1.6,0.3
			c0.5,0.2,0.8,0.5,1.1,0.8c0.2,0.3,0.4,0.7,0.5,1.1c0.1,0.4,0.1,1,0.1,1.7V36.2z"/>
		<path d="M95.5,25.1v-2.4H98v2.4H95.5z M95.5,36.2v-9.7H98v9.7H95.5z"/>
		<path d="M100.1,31.2c0-0.9,0.2-1.7,0.6-2.5c0.4-0.8,1-1.4,1.8-1.8c0.8-0.4,1.6-0.6,2.6-0.6c1.5,0,2.7,0.5,3.6,1.4s1.4,2.2,1.4,3.6
			c0,1.5-0.5,2.7-1.4,3.7c-1,1-2.1,1.5-3.6,1.5c-0.9,0-1.7-0.2-2.6-0.6c-0.8-0.4-1.4-1-1.8-1.8C100.3,33.3,100.1,32.3,100.1,31.2z
			 M102.7,31.3c0,1,0.2,1.7,0.7,2.2c0.5,0.5,1,0.8,1.7,0.8s1.2-0.3,1.7-0.8c0.5-0.5,0.7-1.3,0.7-2.2c0-1-0.2-1.7-0.7-2.2
			c-0.5-0.5-1-0.8-1.7-0.8s-1.2,0.3-1.7,0.8C103,29.6,102.7,30.4,102.7,31.3z"/>
		<path d="M121,36.2h-2.6v-5c0-1.1-0.1-1.7-0.2-2s-0.3-0.5-0.5-0.7c-0.2-0.2-0.5-0.3-0.9-0.3c-0.4,0-0.8,0.1-1.2,0.4
			c-0.4,0.2-0.6,0.6-0.7,1c-0.1,0.4-0.2,1.2-0.2,2.2v4.4h-2.6v-9.7h2.4v1.4c0.9-1.1,1.9-1.7,3.2-1.7c0.6,0,1.1,0.1,1.6,0.3
			c0.5,0.2,0.8,0.5,1.1,0.8c0.2,0.3,0.4,0.7,0.5,1.1c0.1,0.4,0.1,1,0.1,1.7V36.2z"/>
	</g>
	<linearGradient id="flameGradient" gradientUnits="userSpaceOnUse" x1="9.2664" y1="19.6816" x2="9.2664" y2="37.9487">
		<stop  offset="4.528621e-07" style="stop-color:#F43F5E"/>
		<stop  offset="0.144" style="stop-color:#F7564C"/>
		<stop  offset="0.3482" style="stop-color:#FB7138"/>
		<stop  offset="0.5571" style="stop-color:#FD8429"/>
		<stop  offset="0.7715" style="stop-color:#FF8F21"/>
		<stop  offset="1" style="stop-color:#FF931E"/>
	</linearGradient>
	<path class="flame" d="M12.5,23.7c-2.4-1.5-2.2-2.9-2.2-4c-2.6,1.6-4.3,5.5-3.8,8.1c-1.2-0.6-2.1-2.2-2.5-3.8
		c-1.5,1.5-2.3,3.6-2.3,5.7c0,4.6,2.8,8.3,8.2,8.3c4.4,0,6-2.7,6.8-5.4C17.7,29.1,15.1,25.3,12.5,23.7z M9.9,34.9
		c-0.4,0-0.8-0.1-1.2-0.2c-2-0.6-3-2.8-2.4-4.7c0.5,0.7,1.3,1,2.1,1c-0.9-2.2,0.4-4.2,1.4-5.1c0,1.4,3.9,2.2,3.8,5.3
		C13.5,33.3,11.9,34.9,9.9,34.9z"/>
</g>
</svg>
