<svg xmlns="http://www.w3.org/2000/svg" x="0px" y="0px"
	 viewBox="0 0 210 22" >
<style type="text/css">
	.flame{fill:url(#flameGradient);}
	.textColor{fill:#FFFFFF;}
</style>
<g>
	<g>
		<path class="textColor" d="M30.7,12.5l1.8,0.4c-0.4,1.5-1,2.6-2,3.3s-2.2,1.2-3.6,1.2c-1.5,0-2.6-0.3-3.5-0.9s-1.6-1.4-2.1-2.6
			c-0.5-1.1-0.7-2.3-0.7-3.6c0-1.4,0.3-2.6,0.8-3.7c0.5-1,1.3-1.8,2.3-2.4s2.1-0.8,3.3-0.8c1.3,0,2.5,0.3,3.4,1
			c0.9,0.7,1.6,1.6,1.9,2.9l-1.8,0.4c-0.3-1-0.8-1.7-1.4-2.1C28.5,5.2,27.8,5,26.9,5c-1,0-1.9,0.2-2.6,0.7s-1.2,1.2-1.5,2
			c-0.3,0.8-0.4,1.7-0.4,2.6c0,1.1,0.2,2.1,0.5,3s0.9,1.5,1.6,1.9c0.7,0.4,1.5,0.6,2.3,0.6c1,0,1.8-0.3,2.5-0.9S30.4,13.6,30.7,12.5
			z"/>
		<path class="textColor" d="M40.8,16c-0.6,0.5-1.2,0.9-1.8,1.1c-0.6,0.2-1.2,0.3-1.8,0.3c-1.1,0-1.9-0.3-2.5-0.8s-0.9-1.2-0.9-2
			c0-0.5,0.1-0.9,0.3-1.3c0.2-0.4,0.5-0.7,0.9-0.9c0.4-0.2,0.7-0.4,1.2-0.5c0.3-0.1,0.8-0.2,1.5-0.2c1.3-0.2,2.3-0.3,2.9-0.6
			c0-0.2,0-0.4,0-0.4c0-0.7-0.2-1.1-0.5-1.4c-0.4-0.4-1-0.6-1.9-0.6c-0.8,0-1.4,0.1-1.7,0.4c-0.4,0.3-0.6,0.8-0.8,1.4l-1.6-0.2
			c0.1-0.7,0.4-1.2,0.7-1.7c0.3-0.4,0.8-0.8,1.5-1s1.4-0.3,2.2-0.3c0.8,0,1.5,0.1,2,0.3c0.5,0.2,0.9,0.4,1.1,0.7
			c0.2,0.3,0.4,0.7,0.5,1.1c0.1,0.3,0.1,0.8,0.1,1.5v2.2c0,1.5,0,2.5,0.1,2.9c0.1,0.4,0.2,0.8,0.4,1.2h-1.7
			C41,16.8,40.8,16.4,40.8,16z M40.7,12.3c-0.6,0.2-1.5,0.5-2.7,0.6c-0.7,0.1-1.2,0.2-1.4,0.3c-0.3,0.1-0.5,0.3-0.7,0.5
			c-0.2,0.2-0.2,0.5-0.2,0.8c0,0.4,0.2,0.8,0.5,1.1c0.3,0.3,0.8,0.4,1.5,0.4c0.6,0,1.2-0.1,1.7-0.4c0.5-0.3,0.9-0.7,1.1-1.1
			c0.2-0.4,0.3-0.9,0.3-1.7V12.3z"/>
		<path class="textColor" d="M44.9,17.2V7.4h1.5v1.4c0.3-0.5,0.7-0.9,1.2-1.2c0.5-0.3,1.1-0.4,1.7-0.4c0.7,0,1.3,0.1,1.8,0.4
			s0.8,0.7,1,1.3c0.8-1.1,1.8-1.7,3-1.7c1,0,1.7,0.3,2.2,0.8c0.5,0.5,0.8,1.4,0.8,2.5v6.7h-1.6V11c0-0.7-0.1-1.1-0.2-1.4
			c-0.1-0.3-0.3-0.5-0.6-0.7c-0.3-0.2-0.6-0.3-1-0.3c-0.7,0-1.3,0.2-1.7,0.7c-0.5,0.5-0.7,1.2-0.7,2.2v5.7h-1.7v-6.3
			c0-0.7-0.1-1.3-0.4-1.7S49.6,8.6,49,8.6c-0.5,0-0.9,0.1-1.3,0.4c-0.4,0.2-0.7,0.6-0.9,1.1c-0.2,0.5-0.3,1.2-0.3,2v5.1H44.9z"/>
		<path class="textColor" d="M60.5,20.9V7.4H62v1.3c0.4-0.5,0.8-0.9,1.2-1.1c0.4-0.2,1-0.4,1.6-0.4c0.8,0,1.6,0.2,2.2,0.6
			c0.6,0.4,1.1,1,1.4,1.8c0.3,0.8,0.5,1.6,0.5,2.6c0,1-0.2,1.9-0.5,2.7c-0.4,0.8-0.9,1.4-1.6,1.8s-1.4,0.6-2.2,0.6
			c-0.6,0-1-0.1-1.5-0.3c-0.4-0.2-0.8-0.5-1.1-0.9v4.7H60.5z M62,12.4c0,1.3,0.3,2.2,0.8,2.8c0.5,0.6,1.1,0.9,1.8,0.9
			c0.7,0,1.4-0.3,1.9-0.9c0.5-0.6,0.8-1.6,0.8-2.9c0-1.2-0.3-2.2-0.8-2.8c-0.5-0.6-1.1-0.9-1.8-0.9c-0.7,0-1.3,0.3-1.9,1
			S62,11.1,62,12.4z"/>
		<path class="textColor" d="M77.4,16c-0.6,0.5-1.2,0.9-1.8,1.1c-0.6,0.2-1.2,0.3-1.8,0.3c-1.1,0-1.9-0.3-2.5-0.8s-0.9-1.2-0.9-2
			c0-0.5,0.1-0.9,0.3-1.3c0.2-0.4,0.5-0.7,0.9-0.9c0.4-0.2,0.7-0.4,1.2-0.5c0.3-0.1,0.8-0.2,1.5-0.2c1.3-0.2,2.3-0.3,2.9-0.6
			c0-0.2,0-0.4,0-0.4c0-0.7-0.2-1.1-0.5-1.4c-0.4-0.4-1-0.6-1.9-0.6c-0.8,0-1.4,0.1-1.7,0.4c-0.4,0.3-0.6,0.8-0.8,1.4l-1.6-0.2
			c0.1-0.7,0.4-1.2,0.7-1.7c0.3-0.4,0.8-0.8,1.5-1s1.4-0.3,2.2-0.3c0.8,0,1.5,0.1,2,0.3C77.7,7.7,78,8,78.3,8.2
			c0.2,0.3,0.4,0.7,0.5,1.1c0.1,0.3,0.1,0.8,0.1,1.5v2.2c0,1.5,0,2.5,0.1,2.9c0.1,0.4,0.2,0.8,0.4,1.2h-1.7
			C77.5,16.8,77.4,16.4,77.4,16z M77.2,12.3c-0.6,0.2-1.5,0.5-2.7,0.6c-0.7,0.1-1.2,0.2-1.4,0.3c-0.3,0.1-0.5,0.3-0.7,0.5
			c-0.2,0.2-0.2,0.5-0.2,0.8c0,0.4,0.2,0.8,0.5,1.1c0.3,0.3,0.8,0.4,1.5,0.4c0.6,0,1.2-0.1,1.7-0.4c0.5-0.3,0.9-0.7,1.1-1.1
			c0.2-0.4,0.3-0.9,0.3-1.7V12.3z"/>
		<path class="textColor" d="M81.5,5.6V3.7h1.7v1.9H81.5z M81.5,17.2V7.4h1.7v9.7H81.5z"/>
		<path class="textColor" d="M85.3,18l1.6,0.2c0.1,0.5,0.3,0.9,0.6,1.1c0.4,0.3,1,0.5,1.7,0.5c0.8,0,1.4-0.2,1.8-0.5
			c0.4-0.3,0.7-0.7,0.8-1.3c0.1-0.3,0.1-1,0.1-2.1c-0.7,0.9-1.6,1.3-2.7,1.3c-1.3,0-2.4-0.5-3.1-1.5S85,13.6,85,12.3
			c0-0.9,0.2-1.8,0.5-2.6s0.8-1.4,1.5-1.8c0.6-0.4,1.4-0.6,2.3-0.6c1.2,0,2.1,0.5,2.8,1.4V7.4h1.5v8.4c0,1.5-0.2,2.6-0.5,3.2
			s-0.8,1.1-1.5,1.5c-0.7,0.4-1.5,0.6-2.5,0.6c-1.2,0-2.1-0.3-2.8-0.8C85.6,19.8,85.3,19,85.3,18z M86.7,12.1c0,1.3,0.3,2.2,0.8,2.8
			s1.1,0.9,1.9,0.9c0.8,0,1.4-0.3,1.9-0.9c0.5-0.6,0.8-1.5,0.8-2.7c0-1.2-0.3-2.1-0.8-2.7c-0.5-0.6-1.2-0.9-1.9-0.9
			c-0.7,0-1.4,0.3-1.9,0.9C86.9,10.1,86.7,11,86.7,12.1z"/>
		<path class="textColor" d="M96.1,17.2V7.4h1.5v1.4c0.7-1.1,1.7-1.6,3.1-1.6c0.6,0,1.1,0.1,1.6,0.3c0.5,0.2,0.9,0.5,1.1,0.8
			c0.2,0.3,0.4,0.8,0.5,1.2c0.1,0.3,0.1,0.8,0.1,1.6v6h-1.7v-5.9c0-0.7-0.1-1.2-0.2-1.5c-0.1-0.3-0.4-0.6-0.7-0.8
			c-0.3-0.2-0.7-0.3-1.2-0.3c-0.7,0-1.3,0.2-1.8,0.7c-0.5,0.4-0.8,1.3-0.8,2.5v5.3H96.1z"/>
	</g>
	<g>
		<path class="textColor" d="M116.8,12.2l2.6,0.8c-0.4,1.5-1.1,2.6-2,3.3s-2.1,1.1-3.6,1.1c-1.8,0-3.3-0.6-4.4-1.8s-1.7-2.9-1.7-5
			c0-2.2,0.6-4,1.7-5.2c1.2-1.2,2.7-1.9,4.6-1.9c1.6,0,3,0.5,4,1.5c0.6,0.6,1.1,1.4,1.4,2.5l-2.7,0.6c-0.2-0.7-0.5-1.2-1-1.7
			c-0.5-0.4-1.1-0.6-1.8-0.6c-1,0-1.8,0.4-2.4,1.1s-0.9,1.9-0.9,3.5c0,1.7,0.3,2.9,0.9,3.6c0.6,0.7,1.4,1.1,2.4,1.1
			c0.7,0,1.3-0.2,1.9-0.7C116.2,13.9,116.6,13.2,116.8,12.2z"/>
		<path class="textColor" d="M121.1,12.2c0-0.9,0.2-1.7,0.6-2.5c0.4-0.8,1-1.4,1.8-1.8c0.8-0.4,1.6-0.6,2.6-0.6c1.5,0,2.7,0.5,3.6,1.4
			s1.4,2.2,1.4,3.6c0,1.5-0.5,2.7-1.4,3.7c-1,1-2.1,1.5-3.6,1.5c-0.9,0-1.7-0.2-2.6-0.6c-0.8-0.4-1.4-1-1.8-1.8
			C121.3,14.2,121.1,13.3,121.1,12.2z M123.8,12.3c0,1,0.2,1.7,0.7,2.2c0.5,0.5,1,0.8,1.7,0.8s1.2-0.3,1.7-0.8
			c0.5-0.5,0.7-1.3,0.7-2.2c0-1-0.2-1.7-0.7-2.2c-0.5-0.5-1-0.8-1.7-0.8s-1.2,0.3-1.7,0.8C124,10.6,123.8,11.3,123.8,12.3z"/>
		<path class="textColor" d="M133,7.4h2.4v1.3c0.9-1,1.9-1.6,3-1.6c0.6,0,1.2,0.1,1.6,0.4c0.5,0.3,0.8,0.6,1.1,1.2
			c0.4-0.5,0.9-0.9,1.4-1.2c0.5-0.3,1-0.4,1.6-0.4c0.7,0,1.3,0.1,1.8,0.4c0.5,0.3,0.9,0.7,1.1,1.3c0.2,0.4,0.3,1.1,0.3,2v6.2h-2.6
			v-5.6c0-1-0.1-1.6-0.3-1.9c-0.2-0.4-0.6-0.6-1.1-0.6c-0.4,0-0.7,0.1-1,0.3s-0.5,0.5-0.7,1s-0.2,1.1-0.2,2v4.7h-2.6v-5.3
			c0-0.9,0-1.6-0.1-1.8s-0.2-0.5-0.4-0.6c-0.2-0.1-0.5-0.2-0.8-0.2c-0.4,0-0.8,0.1-1.1,0.3c-0.3,0.2-0.5,0.5-0.7,0.9
			c-0.1,0.4-0.2,1.1-0.2,2v4.7H133V7.4z"/>
		<path class="textColor" d="M149.9,7.4h2.4v1.4c0.3-0.5,0.7-0.9,1.3-1.2c0.5-0.3,1.1-0.5,1.8-0.5c1.1,0,2.1,0.4,2.9,1.3
			c0.8,0.9,1.2,2.1,1.2,3.7c0,1.6-0.4,2.9-1.2,3.8c-0.8,0.9-1.8,1.4-2.9,1.4c-0.5,0-1-0.1-1.5-0.3c-0.4-0.2-0.9-0.6-1.4-1.1v4.9
			h-2.6V7.4z M152.4,12.1c0,1.1,0.2,1.9,0.7,2.4c0.4,0.5,1,0.8,1.6,0.8c0.6,0,1.1-0.2,1.5-0.7s0.6-1.3,0.6-2.4c0-1-0.2-1.8-0.6-2.3
			c-0.4-0.5-0.9-0.7-1.5-0.7c-0.6,0-1.2,0.2-1.6,0.7S152.4,11.2,152.4,12.1z"/>
		<path class="textColor" d="M163.3,10.4L161,10c0.3-0.9,0.7-1.6,1.4-2.1c0.6-0.5,1.6-0.7,2.9-0.7c1.2,0,2,0.1,2.6,0.4
			c0.6,0.3,1,0.6,1.2,1c0.2,0.4,0.3,1.2,0.3,2.3l0,3c0,0.9,0,1.5,0.1,1.9c0.1,0.4,0.2,0.8,0.5,1.3h-2.6c-0.1-0.2-0.1-0.4-0.2-0.8
			c0-0.2-0.1-0.3-0.1-0.3c-0.4,0.4-0.9,0.7-1.4,1c-0.5,0.2-1,0.3-1.6,0.3c-1,0-1.8-0.3-2.4-0.8c-0.6-0.5-0.9-1.2-0.9-2.1
			c0-0.6,0.1-1,0.4-1.5c0.3-0.4,0.6-0.8,1.1-1c0.5-0.2,1.2-0.4,2.1-0.6c1.2-0.2,2-0.4,2.5-0.6v-0.3c0-0.5-0.1-0.8-0.4-1.1
			c-0.2-0.2-0.7-0.3-1.4-0.3c-0.5,0-0.8,0.1-1.1,0.3C163.7,9.6,163.5,10,163.3,10.4z M166.8,12.5c-0.3,0.1-0.9,0.2-1.6,0.4
			s-1.2,0.3-1.4,0.4c-0.3,0.2-0.5,0.5-0.5,0.9c0,0.4,0.1,0.7,0.4,0.9c0.3,0.3,0.6,0.4,1,0.4c0.5,0,0.9-0.2,1.3-0.5
			c0.3-0.2,0.5-0.5,0.6-0.9c0.1-0.2,0.1-0.6,0.1-1.3V12.5z"/>
		<path class="textColor" d="M180.7,17.2h-2.6v-5c0-1.1-0.1-1.7-0.2-2s-0.3-0.5-0.5-0.7c-0.2-0.2-0.5-0.3-0.9-0.3c-0.4,0-0.8,0.1-1.2,0.4
			c-0.4,0.2-0.6,0.6-0.7,1c-0.1,0.4-0.2,1.2-0.2,2.2v4.4h-2.6V7.4h2.4v1.4c0.9-1.1,1.9-1.7,3.2-1.7c0.6,0,1.1,0.1,1.6,0.3
			c0.5,0.2,0.8,0.5,1.1,0.8c0.2,0.3,0.4,0.7,0.5,1.1c0.1,0.4,0.1,1,0.1,1.7V17.2z"/>
		<path class="textColor" d="M183.3,6.1V3.7h2.6v2.4H183.3z M183.3,17.2V7.4h2.6v9.7H183.3z"/>
		<path class="textColor" d="M188,12.2c0-0.9,0.2-1.7,0.6-2.5c0.4-0.8,1-1.4,1.8-1.8c0.8-0.4,1.6-0.6,2.6-0.6c1.5,0,2.7,0.5,3.6,1.4
			s1.4,2.2,1.4,3.6c0,1.5-0.5,2.7-1.4,3.7c-1,1-2.1,1.5-3.6,1.5c-0.9,0-1.7-0.2-2.6-0.6c-0.8-0.4-1.4-1-1.8-1.8
			C188.2,14.2,188,13.3,188,12.2z M190.6,12.3c0,1,0.2,1.7,0.7,2.2c0.5,0.5,1,0.8,1.7,0.8s1.2-0.3,1.7-0.8c0.5-0.5,0.7-1.3,0.7-2.2
			c0-1-0.2-1.7-0.7-2.2c-0.5-0.5-1-0.8-1.7-0.8s-1.2,0.3-1.7,0.8C190.8,10.6,190.6,11.3,190.6,12.3z"/>
		<path class="textColor" d="M208.9,17.2h-2.6v-5c0-1.1-0.1-1.7-0.2-2s-0.3-0.5-0.5-0.7c-0.2-0.2-0.5-0.3-0.9-0.3c-0.4,0-0.8,0.1-1.2,0.4
			c-0.4,0.2-0.6,0.6-0.7,1c-0.1,0.4-0.2,1.2-0.2,2.2v4.4H200V7.4h2.4v1.4c0.9-1.1,1.9-1.7,3.2-1.7c0.6,0,1.1,0.1,1.6,0.3
			c0.5,0.2,0.8,0.5,1.1,0.8c0.2,0.3,0.4,0.7,0.5,1.1c0.1,0.4,0.1,1,0.1,1.7V17.2z"/>
	</g>
	<linearGradient id="flameGradient" gradientUnits="userSpaceOnUse" x1="9.8465" y1="1.345" x2="9.8465" y2="19.6121">
		<stop  offset="4.528621e-07" style="stop-color:#F43F5E"/>
		<stop  offset="0.144" style="stop-color:#F7564C"/>
		<stop  offset="0.3482" style="stop-color:#FB7138"/>
		<stop  offset="0.5571" style="stop-color:#FD8429"/>
		<stop  offset="0.7715" style="stop-color:#FF8F21"/>
		<stop  offset="1" style="stop-color:#FF931E"/>
	</linearGradient>
	<path class="flame" d="M13.1,5.3c-2.4-1.5-2.2-2.9-2.2-4C8.2,2.9,6.5,6.9,7,9.4C5.8,8.8,4.8,7.2,4.5,5.7C3,7.2,2.2,9.2,2.2,11.4
		c0,4.6,2.8,8.3,8.2,8.3c4.4,0,6-2.7,6.8-5.4C18.3,10.7,15.7,6.9,13.1,5.3z M10.4,16.6c-0.4,0-0.8-0.1-1.2-0.2c-2-0.6-3-2.8-2.4-4.7
		c0.5,0.7,1.3,1,2.1,1c-0.9-2.2,0.4-4.2,1.4-5.1c0,1.4,3.9,2.2,3.8,5.3C14.1,14.9,12.5,16.6,10.4,16.6z"/>
</g>
</svg>
